<svg width="642" height="386" viewBox="0 0 642 386" fill="none" xmlns="http://www.w3.org/2000/svg">
<path d="M481.256 333.45C456.973 333.45 437.219 313.654 437.219 289.321C437.219 264.988 456.973 245.193 481.256 245.193C505.539 245.193 525.293 264.988 525.293 289.321C525.293 313.654 505.539 333.45 481.256 333.45ZM481.256 253.845C461.735 253.845 445.853 269.76 445.853 289.321C445.853 308.883 461.735 324.797 481.256 324.797C500.777 324.797 516.659 308.883 516.659 289.321C516.659 269.76 500.777 253.845 481.256 253.845Z" fill="#F3B331"/>
<path d="M543.468 161.828C524.16 161.828 508.45 146.089 508.45 126.737C508.45 107.389 524.157 91.646 543.468 91.646C562.776 91.646 578.487 107.385 578.487 126.737C578.487 146.085 562.78 161.828 543.468 161.828ZM543.468 100.298C528.922 100.298 517.085 112.157 517.085 126.737C517.085 141.313 528.919 153.175 543.468 153.175C558.015 153.175 569.852 141.317 569.852 126.737C569.852 112.16 558.018 100.298 543.468 100.298Z" fill="#43A5EF"/>
<path d="M104.001 186.907C81.6751 186.907 63.5137 168.708 63.5137 146.336C63.5137 123.964 81.6751 105.765 104.001 105.765C126.327 105.765 144.488 123.964 144.488 146.336C144.488 168.708 126.323 186.907 104.001 186.907ZM104.001 114.417C86.4368 114.417 72.1481 128.736 72.1481 146.336C72.1481 163.937 86.4368 178.255 104.001 178.255C121.565 178.255 135.854 163.937 135.854 146.336C135.854 128.736 121.565 114.417 104.001 114.417Z" fill="#31B055"/>
<path d="M159.927 349.722C140.423 349.722 124.552 333.821 124.552 314.274C124.552 294.729 140.42 278.825 159.927 278.825C179.434 278.825 195.302 294.726 195.302 314.274C195.302 333.818 179.434 349.722 159.927 349.722ZM159.927 289.084C146.067 289.084 134.789 300.385 134.789 314.274C134.789 328.162 146.067 339.463 159.927 339.463C173.79 339.463 185.065 328.162 185.065 314.274C185.068 300.385 173.79 289.084 159.927 289.084Z" fill="#E65C36"/>
<path d="M195.302 259.762C187.207 259.762 180.622 253.164 180.622 245.051C180.622 236.939 187.207 230.341 195.302 230.341C203.398 230.341 209.982 236.939 209.982 245.051C209.982 253.164 203.398 259.762 195.302 259.762ZM195.302 238.993C191.969 238.993 189.256 241.711 189.256 245.051C189.256 248.392 191.969 251.11 195.302 251.11C198.636 251.11 201.348 248.392 201.348 245.051C201.348 241.711 198.636 238.993 195.302 238.993Z" fill="#F3B331"/>
<path d="M82.0836 222.654C86.4938 221.611 89.2248 217.182 88.1834 212.763C87.142 208.344 82.7227 205.607 78.3125 206.651C73.9023 207.694 71.1713 212.123 72.2127 216.542C73.2541 220.961 77.6734 223.698 82.0836 222.654Z" fill="#89BBE1"/>
<path d="M309.173 322.245C313.584 321.202 316.315 316.773 315.273 312.354C314.232 307.934 309.813 305.198 305.402 306.241C300.992 307.285 298.261 311.713 299.303 316.133C300.344 320.552 304.763 323.289 309.173 322.245Z" fill="#E55C36"/>
<path d="M518.56 215.877C522.97 214.834 525.701 210.405 524.66 205.986C523.619 201.566 519.199 198.83 514.789 199.873C510.379 200.917 507.648 205.345 508.689 209.765C509.731 214.184 514.15 216.921 518.56 215.877Z" fill="#E55C36"/>
<path d="M457.855 51.5845C458.712 47.1251 455.799 42.814 451.349 41.9553C446.899 41.0966 442.597 44.0155 441.74 48.4748C440.883 52.9341 443.796 57.2452 448.246 58.1039C452.696 58.9626 456.998 56.0438 457.855 51.5845Z" fill="#31B055"/>
<path d="M179.205 57.0519C183.06 54.6647 184.254 49.5979 181.872 45.7348C179.489 41.8717 174.433 40.6753 170.578 43.0626C166.723 45.4498 165.529 50.5166 167.911 54.3797C170.293 58.2428 175.35 59.4392 179.205 57.0519Z" fill="#E55C36"/>
<path d="M323.718 93.5085C326.923 90.2976 326.923 85.0916 323.718 81.8806C320.514 78.6696 315.319 78.6696 312.114 81.8806C308.91 85.0916 308.91 90.2976 312.114 93.5086C315.319 96.7195 320.514 96.7195 323.718 93.5085Z" fill="#F3B331"/>
<path d="M170.092 266.679C173.297 263.468 173.297 258.262 170.092 255.051C166.888 251.84 161.693 251.84 158.488 255.051C155.284 258.262 155.284 263.468 158.488 266.679C161.693 269.89 166.888 269.89 170.092 266.679Z" fill="#6AC5B6"/>
<path d="M370.022 335.879C361.927 335.879 355.342 329.28 355.342 321.168C355.342 313.056 361.927 306.457 370.022 306.457C378.117 306.457 384.702 313.056 384.702 321.168C384.702 329.28 378.114 335.879 370.022 335.879ZM370.022 315.11C366.688 315.11 363.976 317.827 363.976 321.168C363.976 324.508 366.688 327.226 370.022 327.226C373.356 327.226 376.068 324.508 376.068 321.168C376.068 317.827 373.356 315.11 370.022 315.11Z" fill="#31B055"/>
<path d="M399.17 234.744L394.809 242.21L445.41 271.888L449.772 264.421L399.17 234.744Z" fill="#F3B331"/>
<path d="M511.435 135.475L394.637 174.168L397.347 182.383L514.145 143.69L511.435 135.475Z" fill="#43A5EF"/>
<path d="M140.341 150.98L137.859 159.267L230.822 187.22L233.304 178.932L140.341 150.98Z" fill="#31B055"/>
<path d="M231.153 229.488L203.292 235.517L205.115 243.974L232.975 237.945L231.153 229.488Z" fill="#F3B331"/>
<path d="M247.349 260.869L180.132 298.013L184.301 305.59L251.519 268.446L247.349 260.869Z" fill="#E65C36"/>
<path d="M358.589 283.997L350.75 287.624L362.248 312.577L370.087 308.95L358.589 283.997Z" fill="#31B055"/>
<path d="M257.256 79.6807C265.328 79.0718 272.39 85.1542 273.001 93.2423C273.609 101.33 267.539 108.407 259.467 109.019C251.396 109.628 244.334 103.546 243.726 95.4578C243.112 87.3663 249.185 80.2896 257.256 79.6807ZM258.815 100.391C262.138 100.14 264.641 97.2261 264.391 93.8925C264.14 90.5623 261.232 88.0543 257.905 88.3055C254.582 88.5566 252.079 91.4705 252.33 94.8042C252.581 98.1378 255.492 100.642 258.815 100.391Z" fill="#43A5EF"/>
<path d="M266.753 102.319L259.208 106.526L272.543 130.542L280.088 126.335L266.753 102.319Z" fill="#43A5EF"/>
<path d="M401.11 59.7681C405.624 66.5008 403.832 75.6588 397.113 80.1828C390.395 84.7068 381.256 82.9109 376.741 76.1783C372.227 69.4456 374.019 60.2876 380.737 55.7636C387.456 51.2397 396.595 53.0355 401.11 59.7681ZM383.906 71.3516C385.767 74.1244 389.53 74.8641 392.297 72.9995C395.064 71.1348 395.802 67.3643 393.945 64.5914C392.084 61.8185 388.321 61.0789 385.554 62.9435C382.787 64.8081 382.049 68.5787 383.906 71.3516Z" fill="#E55C36"/>
<path d="M386.165 79.223L356.657 130.002L349.282 125.505L378.79 74.7266L386.165 79.223Z" fill="#E55C36"/>
<path d="M396.33 193.158L406.067 192.467C401.957 168.189 388.331 147.114 369.181 133.246L364.072 141.551C380.654 153.777 392.513 172.083 396.33 193.158Z" fill="#E55C36"/>
<path d="M315.493 125.577C333.655 125.577 350.457 131.515 364.073 141.554L369.181 133.249C354.068 122.306 335.519 115.845 315.49 115.845C295.753 115.845 277.451 122.116 262.458 132.771L268.717 140.26C282.003 131.009 298.125 125.577 315.493 125.577Z" fill="#31B055"/>
<path d="M268.72 140.261L262.461 132.771C252.677 139.724 244.31 148.552 237.873 158.721L246.288 163.599C252.162 154.421 259.794 146.477 268.72 140.261Z" fill="#F3B331"/>
<path d="M406.07 192.47L396.334 193.162C397.202 197.947 397.656 202.877 397.656 207.91C397.656 253.308 360.797 290.243 315.493 290.243C270.189 290.243 233.331 253.308 233.331 207.91C233.331 191.607 238.093 176.401 246.284 163.6L237.87 158.721C228.851 172.961 223.615 189.832 223.615 207.91C223.615 258.675 264.83 299.976 315.49 299.976C366.15 299.976 407.365 258.675 407.365 207.91C407.368 202.647 406.918 197.49 406.07 192.47Z" fill="#43A5EF"/>
<path d="M543.468 108.517C531.847 108.517 522.389 115.958 522.389 125.106C522.389 134.254 531.844 141.695 543.468 141.695C544.076 141.695 544.704 141.671 545.336 141.626L546.991 145.638C547.118 145.947 547.392 146.164 547.708 146.216C547.763 146.226 547.822 146.233 547.88 146.233C548.155 146.233 548.415 146.116 548.594 145.913L554.63 139.184C560.844 136.132 564.548 130.876 564.548 125.106C564.548 115.958 555.093 108.517 543.468 108.517ZM535.572 129.369C534.182 129.369 533.052 128.237 533.052 126.843C533.052 125.45 534.182 124.318 535.572 124.318C536.962 124.318 538.092 125.45 538.092 126.843C538.089 128.237 536.959 129.369 535.572 129.369ZM543.527 129.369C542.136 129.369 541.007 128.237 541.007 126.843C541.007 125.45 542.136 124.318 543.527 124.318C544.917 124.318 546.047 125.45 546.047 126.843C546.047 128.237 544.917 129.369 543.527 129.369ZM551.117 129.369C549.727 129.369 548.597 128.237 548.597 126.843C548.597 125.45 549.727 124.318 551.117 124.318C552.508 124.318 553.637 125.45 553.637 126.843C553.634 128.237 552.504 129.369 551.117 129.369Z" fill="#3F6FA4"/>
<path d="M491.109 264.63H471.403C469.123 264.63 467.276 266.519 467.276 268.852V309.788C467.276 312.12 469.123 314.009 471.403 314.009H491.109C493.389 314.009 495.233 312.117 495.233 309.788V268.852C495.233 266.523 493.389 264.63 491.109 264.63ZM483.817 310.551C483.817 311.109 483.368 311.559 482.815 311.559H479.694C479.141 311.559 478.688 311.109 478.688 310.551V308.828C478.688 308.27 479.138 307.823 479.694 307.823H482.815C483.368 307.823 483.817 308.274 483.817 308.828V310.551ZM489.424 304.947H473.089C471.98 304.947 471.08 304.046 471.08 302.935V271.37C471.08 270.259 471.98 269.357 473.089 269.357H489.424C490.533 269.357 491.432 270.259 491.432 271.37V302.931C491.432 304.046 490.533 304.947 489.424 304.947Z" fill="#3F6FA4"/>
<path d="M169.254 310.482C168.969 310.482 168.678 310.5 168.389 310.537C168.42 310.259 168.434 309.997 168.434 309.746C168.434 305.346 164.86 301.765 160.469 301.765C157.008 301.765 153.932 304.035 152.885 307.324C152.641 307.303 152.415 307.293 152.195 307.293C147.536 307.293 143.746 311.091 143.746 315.76C143.746 320.428 147.536 324.226 152.195 324.226H169.254C173.034 324.226 176.11 321.144 176.11 317.356C176.11 313.565 173.034 310.482 169.254 310.482Z" fill="#3F6FA4"/>
<path d="M119.425 132.142H88.5099C88.0018 132.142 87.5898 132.554 87.5898 133.064V152.123C87.5898 152.632 88.0018 153.045 88.5099 153.045H119.425C119.934 153.045 120.346 152.632 120.346 152.123V133.064C120.346 132.554 119.934 132.142 119.425 132.142ZM117.712 150.568H90.1681V134.557H117.712V150.568Z" fill="#3F6FA4"/>
<path d="M120.016 154.473H87.9197C87.7069 154.473 87.5009 154.555 87.3361 154.713L84.1021 157.762C83.4326 158.391 83.8205 159.64 84.6823 159.64H123.247C124.112 159.64 124.497 158.391 123.827 157.762L120.593 154.713C120.435 154.559 120.229 154.473 120.016 154.473Z" fill="#3F6FA4"/>
<g filter="url(#filter0_di)">
<circle cx="315.5" cy="208.5" r="82.5" fill="#F9F9F9"/>
</g>
<path d="M313.183 241.667C311.634 239.816 310.086 237.965 308.541 236.107C305.963 233.007 303.398 229.89 300.799 226.808C300.398 226.33 300.26 225.862 300.26 225.26C300.274 214.117 300.271 202.97 300.271 191.827C300.271 191.473 300.271 191.122 300.271 190.767C300.202 190.747 300.13 190.73 300.061 190.709C299.254 191.965 298.444 193.22 297.637 194.48C287.784 209.889 277.928 225.294 268.098 240.72C267.539 241.601 266.969 241.99 265.87 241.973C260.999 241.897 256.127 241.942 251.255 241.942C250.929 241.942 250.603 241.942 250.26 241.942C250.284 241.491 250.538 241.25 250.72 240.982C258.757 229.006 266.797 217.031 274.834 205.055C282.665 193.386 290.5 181.723 298.31 170.04C298.736 169.4 299.175 169.162 299.938 169.169C304.102 169.207 308.27 169.211 312.438 169.169C313.248 169.162 313.437 169.403 313.437 170.188C313.416 193.757 313.419 217.326 313.419 240.896C313.419 241.123 313.419 241.347 313.419 241.574C313.341 241.608 313.262 241.636 313.183 241.667Z" fill="#58BFEC"/>
<path d="M319.637 241.505C319.54 241.659 319.42 241.938 319.276 241.584C319.183 241.35 319.252 241.051 319.252 240.782C319.252 217.319 319.259 193.853 319.231 170.391C319.231 169.417 319.472 169.152 320.447 169.169C324.141 169.228 327.838 169.217 331.532 169.173C332.346 169.162 332.535 169.407 332.531 170.194C332.507 181.203 332.514 192.212 332.514 203.218C332.514 203.655 332.514 204.088 332.514 204.78C332.851 204.315 333.064 204.04 333.256 203.751C340.726 192.529 348.2 181.31 355.647 170.074C356.09 169.403 356.557 169.166 357.35 169.173C361.312 169.214 365.273 169.193 369.249 169.193C369.342 169.699 368.974 169.964 368.765 170.274C361.308 181.499 353.848 192.725 346.353 203.926C345.835 204.7 345.862 205.217 346.353 205.977C352.313 215.211 358.242 224.468 364.175 233.719C365.895 236.399 367.615 239.083 369.335 241.77C369.022 242.062 368.71 241.938 368.432 241.938C364.669 241.948 360.906 241.928 357.144 241.962C356.454 241.969 356.062 241.752 355.688 241.171C348.193 229.446 340.678 217.736 333.163 206.022C333.009 205.777 332.84 205.543 332.507 205.048C332.507 205.798 332.507 206.249 332.507 206.703C332.507 212.864 332.511 219.022 332.507 225.184C332.507 225.614 332.552 226.037 332.229 226.422C328.027 231.442 323.835 236.471 319.637 241.505C319.461 241.15 319.551 240.772 319.551 240.411C319.547 217.254 319.547 194.094 319.547 170.938C319.547 170.604 319.523 170.27 319.54 170.17C319.547 170.308 319.54 170.676 319.54 171.044C319.54 194.135 319.54 217.227 319.544 240.314C319.544 240.706 319.448 241.119 319.637 241.505Z" fill="#58BFEC"/>
<path d="M319.636 241.505C319.314 241.202 319.447 240.806 319.447 240.455C319.441 217.123 319.441 193.791 319.447 170.459C319.447 170.177 319.344 169.874 319.64 169.482C319.636 193.574 319.636 217.536 319.636 241.505C319.636 241.501 319.636 241.505 319.636 241.505Z" fill="#53C0EF"/>
<defs>
<filter id="filter0_di" x="218" y="111" width="195" height="195" filterUnits="userSpaceOnUse" color-interpolation-filters="sRGB">
<feFlood flood-opacity="0" result="BackgroundImageFix"/>
<feColorMatrix in="SourceAlpha" type="matrix" values="0 0 0 0 0 0 0 0 0 0 0 0 0 0 0 0 0 0 127 0"/>
<feOffset/>
<feGaussianBlur stdDeviation="7.5"/>
<feColorMatrix type="matrix" values="0 0 0 0 0 0 0 0 0 0 0 0 0 0 0 0 0 0 0.35 0"/>
<feBlend mode="normal" in2="BackgroundImageFix" result="effect1_dropShadow"/>
<feBlend mode="normal" in="SourceGraphic" in2="effect1_dropShadow" result="shape"/>
<feColorMatrix in="SourceAlpha" type="matrix" values="0 0 0 0 0 0 0 0 0 0 0 0 0 0 0 0 0 0 127 0" result="hardAlpha"/>
<feOffset/>
<feGaussianBlur stdDeviation="2.5"/>
<feComposite in2="hardAlpha" operator="arithmetic" k2="-1" k3="1"/>
<feColorMatrix type="matrix" values="0 0 0 0 0 0 0 0 0 0 0 0 0 0 0 0 0 0 0.25 0"/>
<feBlend mode="normal" in2="shape" result="effect2_innerShadow"/>
</filter>
</defs>
</svg>
