<svg width="278" height="290" viewBox="0 0 278 290" fill="none" xmlns="http://www.w3.org/2000/svg">
<path opacity="0.387" d="M277.118 270.231C277.118 281.149 215.084 290 138.559 290C62.0338 290 0 281.152 0 270.231C0 262.502 31.0961 255.812 76.4132 252.557C95.1005 251.213 116.215 250.461 138.559 250.461C147.743 250.461 156.719 250.589 165.399 250.832C229.078 252.616 277.118 260.623 277.118 270.231Z" fill="#B2E2EA"/>
<path opacity="0.1" d="M120.681 274.272C150.056 274.272 173.87 271.511 173.87 268.106C173.87 264.701 150.056 261.941 120.681 261.941C91.3056 261.941 67.4922 264.701 67.4922 268.106C67.4922 271.511 91.3056 274.272 120.681 274.272Z" fill="black"/>
<path d="M120.457 272.571C148.227 272.571 170.74 249.729 170.74 221.552C170.74 193.375 148.227 170.533 120.457 170.533C92.6863 170.533 70.1738 193.375 70.1738 221.552C70.1738 249.729 92.6863 272.571 120.457 272.571Z" fill="#6F6E79"/>
<path d="M136.324 251.736H105.037V278.946H136.324V251.736Z" fill="#B4B9CE"/>
<path d="M177.223 258.326L175.435 267.68L187.056 269.381L194.654 265.129L194.206 258.326H177.223Z" fill="#575A89"/>
<path d="M118.67 82.7401C118.67 82.7401 117.776 92.5182 115.542 92.9442C113.308 93.3702 120.458 110.375 120.458 110.375H131.186L139.677 108.245L135.655 98.8916C135.655 98.8916 130.291 92.0889 134.314 86.5625C138.336 81.0361 118.67 82.7401 118.67 82.7401Z" fill="#A0616A"/>
<path opacity="0.1" d="M118.67 82.7401C118.67 82.7401 117.776 92.5182 115.542 92.9442C113.308 93.3702 120.458 110.375 120.458 110.375H131.186L139.677 108.245L135.655 98.8916C135.655 98.8916 130.291 92.0889 134.314 86.5625C138.336 81.0361 118.67 82.7401 118.67 82.7401Z" fill="black"/>
<path d="M96.3204 157.567C96.3204 157.567 84.6988 178.824 94.0812 183.075C103.464 187.327 105.703 186.901 105.703 188.177C105.703 189.454 103.915 189.028 104.809 191.153C105.703 193.278 103.021 201.781 105.703 206.882C107.286 209.6 107.913 212.728 107.491 215.809C107.661 216.562 107.963 217.282 108.385 217.939C109.279 219.64 109.725 220.915 109.279 221.765C108.833 222.615 106.151 228.142 108.833 229.418C111.514 230.694 125.369 231.548 126.712 229.418C128.056 227.288 125.372 226.017 126.712 224.742C128.052 223.467 128.951 223.041 128.052 222.191C127.153 221.341 126.271 210.711 126.271 210.711C126.271 210.711 128.51 198.382 127.613 196.681C126.715 194.98 125.374 193.28 126.271 192.005C127.168 190.73 128.059 191.154 128.51 189.454C128.962 187.753 129.85 183.927 129.85 183.927L134.766 183.503L146.388 185.633C146.388 185.633 159.35 199.232 173.653 203.492C173.653 203.492 177.675 207.317 179.017 207.317C180.359 207.317 180.357 207.317 179.911 208.168C179.465 209.018 178.123 209.018 179.017 209.868C179.911 210.719 181.257 209.444 180.357 210.719C179.458 211.994 178.569 211.994 179.463 212.849C180.357 213.704 179.017 218.375 179.017 218.801C179.017 219.227 174.995 259.19 176.335 260.04C177.675 260.89 196.449 263.441 197.789 260.04C199.129 256.639 196.893 252.374 196.893 252.374C196.893 252.374 203.597 201.357 201.809 197.956C200.021 194.554 193.763 179.25 160.242 169.47C160.242 169.47 150.856 167.769 150.856 166.495C150.856 165.22 149.962 157.141 148.174 156.717C146.386 156.292 136.106 155.866 136.106 155.866L123.145 159.692L105.257 156.717L96.3204 157.567Z" fill="#2F345F"/>
<path d="M111.964 228.99L109.725 236.643C109.725 236.643 107.937 248.972 110.173 251.948C111.387 253.605 112.982 254.98 114.835 255.967C116.689 256.955 118.754 257.53 120.874 257.649C122.503 257.792 124.135 257.401 125.499 256.541C126.862 255.682 127.877 254.405 128.374 252.923C128.441 252.745 128.483 252.56 128.498 252.372C128.498 251.522 127.158 241.318 127.158 241.318L124.919 230.689L124.473 227.714L111.964 228.99Z" fill="#2F2E41"/>
<path d="M177.222 265.548C177.222 265.548 174.983 263.418 174.54 265.548C174.097 267.678 172.301 276.603 175.434 277.027C178.567 277.451 208.506 281.703 211.639 280.002C214.772 278.302 220.579 275.751 217.003 274.476C213.427 273.201 203.147 269.374 203.147 269.374C201.069 266.703 198.83 264.147 196.443 261.721C195.549 261.295 190.633 262.145 188.397 263.851C186.162 265.557 177.222 265.548 177.222 265.548Z" fill="#2F2E41"/>
<path d="M129.397 91.668C137.049 91.668 143.252 85.7673 143.252 78.4885C143.252 71.2097 137.049 65.3091 129.397 65.3091C121.744 65.3091 115.541 71.2097 115.541 78.4885C115.541 85.7673 121.744 91.668 129.397 91.668Z" fill="#A0616A"/>
<path d="M128.055 108.249L122.69 102.721L116.747 91.6746C116.747 91.6746 112.412 90.3999 111.518 92.5249C110.624 94.6499 94.5324 101.453 94.5324 101.453C94.5324 101.453 98.5544 137.17 96.7716 140.567C94.9888 143.963 91.8556 157.573 94.5324 158.848C97.2091 160.123 109.73 158.848 113.752 160.549C117.774 162.249 129.396 162.249 132.527 160.124C135.659 157.999 136.549 156.299 139.679 157.573C142.342 158.66 148.569 121.538 150.358 110.475C150.509 109.546 150.384 108.595 149.996 107.73C149.608 106.865 148.974 106.121 148.164 105.581C144.154 102.906 136.93 98.2938 135.652 98.9033C133.865 99.7454 128.055 108.249 128.055 108.249Z" fill="#F7B348"/>
<path d="M147.276 106.548C148.324 106.798 149.267 107.347 149.978 108.121C150.689 108.895 151.135 109.857 151.255 110.878L154.872 141.831C154.872 141.831 145.933 160.113 141.463 147.784C136.993 135.454 147.276 106.548 147.276 106.548Z" fill="#F7B348"/>
<path d="M146.381 144.812L156.214 142.261C156.214 142.261 158.002 154.165 159.79 154.165C161.578 154.165 153.532 160.968 149.51 160.118C145.488 159.268 139.677 156.292 139.231 154.165C138.784 152.039 143.252 143.111 143.252 143.111L146.381 144.812Z" fill="#F7B348"/>
<path d="M118.936 84.1739C119.878 82.1979 119.715 79.8927 120.486 77.8528C120.903 76.7608 121.58 75.7752 122.464 74.9732C123.348 74.1711 124.414 73.5743 125.581 73.2293C126.747 72.8842 127.982 72.8004 129.188 72.9843C130.394 73.1682 131.539 73.6148 132.533 74.2893C133.536 74.9692 134.54 75.9277 135.763 75.7933C137.081 75.6541 138.256 74.2565 139.466 74.7677C140.808 75.3362 140.447 77.6235 141.806 78.151C142.178 78.2522 142.575 78.231 142.933 78.091C143.292 77.951 143.59 77.7003 143.78 77.3793C144.141 76.7261 144.338 76.002 144.355 75.2641C144.712 73.4648 144.55 71.607 143.885 69.8885C143.537 69.3315 143.234 68.7504 142.979 68.1501C142.834 67.5893 142.776 67.0114 142.806 66.4347C142.949 64.2968 142.501 62.1607 141.508 60.2382C140.832 59.2419 139.957 58.3826 138.931 57.7097C137.905 57.0368 136.75 56.5636 135.531 56.3175C133.091 55.8381 130.584 55.7424 128.112 56.034C124.016 56.3617 119.746 57.0711 116.518 59.4927C116.079 59.7976 115.702 60.1749 115.403 60.6068C115.119 61.1213 114.919 61.6737 114.809 62.2453C114.111 64.9477 113.065 67.5579 111.695 70.0163C111.035 71.0584 110.497 72.1653 110.088 73.3177C109.887 73.8964 109.819 74.5092 109.887 75.115C109.956 75.7209 110.16 76.3058 110.485 76.8305C111.16 77.5475 111.914 78.1934 112.733 78.7573C113.458 79.4208 113.8 80.6971 114.602 81.2001C115.303 81.6392 116.152 81.3296 116.86 81.7949C117.787 82.3864 117.854 83.6954 118.936 84.1739Z" fill="#2F2E41"/>
<path d="M130.291 114.627L131.631 112.076C131.631 112.076 151.297 117.603 155.321 122.705C155.321 122.705 165.154 116.752 170.518 117.603L175.882 118.453L159.346 132.483L138.332 130.782L130.291 114.627Z" fill="#F2F2F2"/>
<path d="M129.397 112.076L111.071 136.31L137.443 148.639C138.111 148.988 138.861 149.171 139.623 149.171C140.386 149.171 141.136 148.988 141.804 148.639L159.344 140.986L175.88 118.453L159.344 126.53C159.118 126.076 158.798 125.67 158.402 125.337C158.007 125.004 157.545 124.75 157.044 124.591C156.543 124.432 156.013 124.372 155.486 124.413C154.96 124.453 154.448 124.595 153.98 124.83L129.397 112.076Z" fill="#EA6572"/>
<path d="M157.554 155.022L161.13 146.095C161.13 146.095 169.176 136.317 164.706 131.639C160.236 126.961 155.32 145.238 155.32 145.238L157.554 155.022Z" fill="#A0616A"/>
<path d="M116.299 153.59L124.102 147.574C124.102 147.574 136.219 142.955 134.819 136.777C133.419 130.598 119.523 144.066 119.523 144.066L116.299 153.59Z" fill="#A0616A"/>
<path opacity="0.1" d="M96.992 110.587H96.5459C96.5459 110.587 89.6181 102.722 88.278 113.351C86.9379 123.979 82.468 159.268 94.0879 160.537C101.185 161.217 108.291 159.318 113.978 155.222C113.978 155.222 122.469 142.893 119.341 142.893C116.224 142.585 113.09 142.444 109.956 142.469C105.949 142.705 102.351 143.78 102.58 142.682C103.026 140.56 109.506 113.562 96.992 110.587Z" fill="black"/>
<path d="M96.3224 102.298L94.5345 101.448C94.5345 101.448 87.3827 102.722 86.0426 113.352C84.7025 123.983 80.2326 159.269 91.8526 160.539C103.473 161.809 119.118 158.838 119.118 158.838C119.118 158.838 122.246 142.682 119.118 142.682C115.99 142.682 99.8983 144.812 100.343 142.682C100.787 140.552 108.838 105.273 96.3224 102.298Z" fill="#F7B348"/>
<path d="M151.074 150.128L156.002 142.942L159.118 154.804L151.074 158.204V150.128Z" fill="#F7B348"/>
<path d="M49.8246 47.665C56.4895 47.665 61.8924 42.5258 61.8924 36.1863C61.8924 29.8467 56.4895 24.7075 49.8246 24.7075C43.1598 24.7075 37.7568 29.8467 37.7568 36.1863C37.7568 42.5258 43.1598 47.665 49.8246 47.665Z" fill="#E1F3F6"/>
<path d="M64.1269 121.641H35.5215V148.85H64.1269V121.641Z" fill="#E1F3F6"/>
<path d="M166.272 0L173.507 11.9277L180.741 23.8554H151.786L159.021 11.9277L166.272 0Z" fill="#E1F3F6"/>
<path d="M99.7287 58.9906C100.47 57.5688 100.89 56.3305 100.666 56.2247C100.442 56.119 99.6587 57.1858 98.9171 58.6076C98.1754 60.0293 97.7559 61.2676 97.98 61.3734C98.2042 61.4792 98.987 60.4124 99.7287 58.9906Z" fill="#E0E0E0"/>
<path d="M137.352 76.7631C138.094 75.3414 138.572 74.1305 138.419 74.0585C138.267 73.9865 137.542 75.0807 136.8 76.5024C136.058 77.9242 135.581 79.1351 135.733 79.2071C135.886 79.2791 136.611 78.1849 137.352 76.7631Z" fill="#E0E0E0"/>
<path d="M119.257 81.7079C119.396 81.7079 119.509 81.6008 119.509 81.4687C119.509 81.3366 119.396 81.2295 119.257 81.2295C119.118 81.2295 119.006 81.3366 119.006 81.4687C119.006 81.6008 119.118 81.7079 119.257 81.7079Z" fill="#DBDBDB"/>
<g opacity="0.5">
<path opacity="0.5" d="M99.5494 74.7593H99.291V76.1519H99.5494V74.7593Z" fill="#47E6B1"/>
<path opacity="0.5" d="M100.152 75.5788V75.333H98.6882V75.5788H100.152Z" fill="#47E6B1"/>
</g>
<g opacity="0.5">
<path opacity="0.5" d="M164.634 57.4004H164.376V58.793H164.634V57.4004Z" fill="#47E6B1"/>
<path opacity="0.5" d="M165.237 58.2199V57.9741H163.773V58.2199H165.237Z" fill="#47E6B1"/>
</g>
<g opacity="0.5">
<path opacity="0.5" d="M101.1 40.1211H100.842V41.5137H101.1V40.1211Z" fill="#47E6B1"/>
<path opacity="0.5" d="M101.703 40.9406V40.6948H100.239V40.9406H101.703Z" fill="#47E6B1"/>
</g>
<g opacity="0.5">
<path opacity="0.5" d="M156.886 37.9917H156.628V39.3844H156.886V37.9917Z" fill="#47E6B1"/>
<path opacity="0.5" d="M157.489 38.8107V38.5649H156.025V38.8107H157.489Z" fill="#47E6B1"/>
</g>
<path opacity="0.5" d="M97.8187 56.0455C97.7483 56.0152 97.692 55.9616 97.6603 55.8946C97.6286 55.8276 97.6237 55.752 97.6465 55.6818C97.6478 55.6709 97.6478 55.6599 97.6465 55.649C97.6484 55.6168 97.6394 55.5848 97.6208 55.5578C97.6022 55.5309 97.575 55.5103 97.5432 55.4991C97.5114 55.4879 97.4766 55.4867 97.4441 55.4957C97.4115 55.5047 97.3828 55.5234 97.3623 55.549C97.3553 55.5582 97.3495 55.5681 97.345 55.5785C97.3132 55.6455 97.2568 55.6991 97.1864 55.7292C97.116 55.7594 97.0364 55.7641 96.9626 55.7424H96.9282C96.8943 55.7406 96.8607 55.7491 96.8324 55.7668C96.804 55.7845 96.7823 55.8103 96.7706 55.8406C96.7588 55.8708 96.7576 55.9039 96.767 55.9349C96.7765 55.9659 96.7961 55.9932 96.8231 56.0127L96.8541 56.0291C96.9245 56.0593 96.9808 56.113 97.0125 56.18C97.0443 56.247 97.0492 56.3227 97.0264 56.3928C97.0251 56.4037 97.0251 56.4147 97.0264 56.4256C97.0244 56.4578 97.0335 56.4898 97.052 56.5167C97.0706 56.5437 97.0978 56.5643 97.1296 56.5755C97.1614 56.5867 97.1962 56.5879 97.2288 56.5789C97.2613 56.5699 97.29 56.5512 97.3106 56.5255C97.3175 56.5164 97.3232 56.5065 97.3278 56.496C97.3596 56.4291 97.416 56.3756 97.4864 56.3454C97.5568 56.3152 97.6364 56.3105 97.7102 56.3322H97.7447C97.7785 56.334 97.8121 56.3255 97.8405 56.3078C97.8688 56.2901 97.8905 56.2642 97.9022 56.234C97.914 56.2037 97.9152 56.1707 97.9058 56.1397C97.8963 56.1087 97.8767 56.0815 97.8497 56.0619L97.8187 56.0455Z" fill="#4D8AF0"/>
<path opacity="0.5" d="M112.625 39.9137C112.555 39.8834 112.499 39.8298 112.467 39.7628C112.435 39.6958 112.43 39.6201 112.453 39.5499C112.454 39.5391 112.454 39.528 112.453 39.5172C112.455 39.485 112.446 39.453 112.427 39.426C112.409 39.3991 112.382 39.3784 112.35 39.3673C112.318 39.3561 112.283 39.3549 112.251 39.3639C112.218 39.3729 112.189 39.3916 112.169 39.4172C112.162 39.4264 112.156 39.4363 112.152 39.4467C112.12 39.5136 112.063 39.5672 111.993 39.5974C111.923 39.6276 111.843 39.6323 111.769 39.6106H111.735C111.701 39.6087 111.667 39.6173 111.639 39.635C111.611 39.6526 111.589 39.6785 111.577 39.7088C111.565 39.739 111.564 39.7721 111.574 39.8031C111.583 39.834 111.603 39.8613 111.63 39.8809L111.661 39.8973C111.731 39.9276 111.787 39.9812 111.819 40.0482C111.851 40.1151 111.856 40.1908 111.833 40.261C111.832 40.2719 111.832 40.2829 111.833 40.2938C111.831 40.326 111.84 40.3579 111.859 40.3849C111.877 40.4119 111.904 40.4325 111.936 40.4437C111.968 40.4549 112.003 40.4561 112.035 40.4471C112.068 40.4381 112.097 40.4194 112.117 40.3937C112.124 40.3846 112.13 40.3747 112.134 40.3642C112.166 40.2973 112.223 40.2437 112.293 40.2135C112.363 40.1834 112.443 40.1787 112.517 40.2004H112.551C112.585 40.2022 112.619 40.1937 112.647 40.176C112.675 40.1583 112.697 40.1324 112.709 40.1022C112.721 40.0719 112.722 40.0388 112.712 40.0079C112.703 39.9769 112.683 39.9496 112.656 39.93L112.625 39.9137Z" fill="#4D8AF0"/>
<path opacity="0.5" d="M130.706 81.7569C130.636 81.7266 130.579 81.673 130.548 81.606C130.516 81.539 130.511 81.4634 130.534 81.3932C130.535 81.3823 130.535 81.3713 130.534 81.3604C130.536 81.3277 130.528 81.2953 130.509 81.2678C130.49 81.2403 130.463 81.2193 130.431 81.208C130.398 81.1967 130.363 81.1957 130.33 81.2052C130.297 81.2146 130.268 81.2341 130.248 81.2605C130.241 81.2696 130.235 81.2796 130.231 81.29C130.199 81.3569 130.143 81.4104 130.072 81.4406C130.002 81.4707 129.922 81.4755 129.848 81.4538H129.814C129.78 81.452 129.747 81.4605 129.718 81.4782C129.69 81.4959 129.668 81.5217 129.656 81.552C129.645 81.5822 129.643 81.6153 129.653 81.6463C129.662 81.6773 129.682 81.7045 129.709 81.7241C129.718 81.7308 129.729 81.7363 129.74 81.7405C129.81 81.7707 129.867 81.8244 129.898 81.8914C129.93 81.9584 129.935 82.034 129.912 82.1042C129.911 82.1151 129.911 82.1261 129.912 82.137C129.91 82.1692 129.919 82.2011 129.938 82.2281C129.956 82.2551 129.984 82.2757 130.015 82.2869C130.047 82.2981 130.082 82.2993 130.114 82.2903C130.147 82.2813 130.176 82.2626 130.196 82.237C130.203 82.2278 130.209 82.2179 130.214 82.2075C130.245 82.1403 130.301 82.0865 130.372 82.0563C130.442 82.0261 130.522 82.0215 130.596 82.0436H130.63C130.664 82.0454 130.698 82.0369 130.726 82.0192C130.755 82.0015 130.776 81.9756 130.788 81.9454C130.8 81.9151 130.801 81.8821 130.792 81.8511C130.782 81.8201 130.762 81.7928 130.736 81.7733L130.706 81.7569Z" fill="#4D8AF0"/>
<path opacity="0.5" d="M162.137 72.1398C162.422 72.1398 162.654 71.9197 162.654 71.6483C162.654 71.3768 162.422 71.1567 162.137 71.1567C161.851 71.1567 161.62 71.3768 161.62 71.6483C161.62 71.9197 161.851 72.1398 162.137 72.1398Z" fill="#F55F44"/>
<path opacity="0.5" d="M150.773 75.2511C151.058 75.2511 151.289 75.0311 151.289 74.7596C151.289 74.4881 151.058 74.2681 150.773 74.2681C150.487 74.2681 150.256 74.4881 150.256 74.7596C150.256 75.0311 150.487 75.2511 150.773 75.2511Z" fill="#4D8AF0"/>
<path opacity="0.5" d="M105.663 80.0827C105.949 80.0827 106.18 79.8626 106.18 79.5911C106.18 79.3197 105.949 79.0996 105.663 79.0996C105.378 79.0996 105.146 79.3197 105.146 79.5911C105.146 79.8626 105.378 80.0827 105.663 80.0827Z" fill="#47E6B1"/>
<path opacity="0.5" d="M132.177 36.2731C132.462 36.2731 132.694 36.053 132.694 35.7816C132.694 35.5101 132.462 35.29 132.177 35.29C131.892 35.29 131.66 35.5101 131.66 35.7816C131.66 36.053 131.892 36.2731 132.177 36.2731Z" fill="#F55F44"/>
<path d="M158.349 53.6381L131.23 65.0153L98.1719 53.6381L128.476 40.5308L143.351 47.0549L143.883 47.2892L158.349 53.6381Z" fill="#292E5F"/>
<path opacity="0.15" d="M158.349 53.7206L131.23 65.0978L98.1719 53.7206L128.476 40.6133L143.351 47.1375L143.883 47.3718L158.349 53.7206Z" fill="black"/>
<path d="M144.445 56.3618L143.929 56.3912L143.352 47.0522L143.884 47.2865L144.445 56.3618Z" fill="#E5C593"/>
<path d="M114.751 53.5924L112.34 67.519C112.34 67.519 129.644 62.1958 144.709 67.519L142.47 52.7732C142.47 52.7732 122.236 50.3975 114.751 53.5924Z" fill="#292E5F"/>
<path d="M144.402 59.2026C145.781 59.2026 146.898 58.4691 146.898 57.5642C146.898 56.6593 145.781 55.9258 144.402 55.9258C143.024 55.9258 141.906 56.6593 141.906 57.5642C141.906 58.4691 143.024 59.2026 144.402 59.2026Z" fill="#E5C593"/>
</svg>
